<svg id="Component_30_1" data-name="Component 30 – 1" xmlns="http://www.w3.org/2000/svg" xmlns:xlink="http://www.w3.org/1999/xlink" width="536" height="341" viewBox="0 0 536 341">
  <defs>
    <clipPath id="clip-path">
      <rect id="dbe5f0727b69487016ffd67a6689e75a" width="536" height="341" rx="10" transform="translate(707 345)" fill="#fff" stroke="#ededed" stroke-width="1"/>
    </clipPath>
    <clipPath id="clip-path-2">
      <ellipse id="Ellipse_5" data-name="Ellipse 5" cx="159.07" cy="22.363" rx="159.07" ry="22.363" fill="#263238"/>
    </clipPath>
    <clipPath id="clip-path-3">
      <path id="Path_17209" data-name="Path 17209" d="M210.294,92.07s-26.945,70.826-27.046,75.839,9.612,190.259,9.612,190.259-7.316,5.063-14.067,0L177.67,167.453,197.923,92.07Z" transform="translate(-177.67 -92.07)" fill="#fff" stroke="#263238" stroke-linecap="round" stroke-linejoin="round" stroke-width="1"/>
    </clipPath>
    <clipPath id="clip-path-4">
      <path id="Path_17213" data-name="Path 17213" d="M180.108,93.4s-12.38,69.763-12.937,74.261,1.122,189.027,1.122,189.027-6.186,8.439-14.624,0l6.751-190.715L171.1,93.4Z" transform="translate(-153.67 -93.4)" fill="#7e57c2" stroke="#263238" stroke-linecap="round" stroke-linejoin="round" stroke-width="1"/>
    </clipPath>
    <clipPath id="clip-path-5">
      <path id="Path_17217" data-name="Path 17217" d="M156.628,93.4s-8.439,74.261-8.439,81.577-.565,181.711-.565,181.711-7.873,6.751-14.624,0c0,0,5.063-180.588,6.751-183.964S145.38,93.4,145.38,93.4Z" transform="translate(-133 -93.4)" fill="#7e57c2" stroke="#263238" stroke-linecap="round" stroke-linejoin="round" stroke-width="1"/>
    </clipPath>
    <clipPath id="clip-path-6">
      <path id="Path_17221" data-name="Path 17221" d="M130.294,92.73l-3.013,262.731s-6.025,9-11.612,0l4.726-261.6Z" transform="translate(-115.67 -92.73)" fill="#7e57c2" stroke="#263238" stroke-linecap="round" stroke-linejoin="round" stroke-width="1"/>
    </clipPath>
    <clipPath id="clip-path-7">
      <path id="Path_17225" data-name="Path 17225" d="M98.33,92.07V355.881s4.692,6.27,11.257,0V92.07Z" transform="translate(-98.33 -92.07)" fill="#7e57c2" stroke="#263238" stroke-linecap="round" stroke-linejoin="round" stroke-width="1"/>
    </clipPath>
    <clipPath id="clip-path-8">
      <path id="Path_17231" data-name="Path 17231" d="M284.4,92.07s26.945,70.818,27.046,75.839-9.612,190.259-9.612,190.259,7.316,5.063,14.067,0l1.122-190.715L296.771,92.07Z" transform="translate(-284.4 -92.07)" fill="#fff" stroke="#263238" stroke-linecap="round" stroke-linejoin="round" stroke-width="1"/>
    </clipPath>
    <clipPath id="clip-path-9">
      <path id="Path_17235" data-name="Path 17235" d="M315.73,93.4s12.38,69.763,12.937,74.261-1.122,189.027-1.122,189.027,6.186,8.439,14.624,0l-6.751-190.715L324.734,93.4Z" transform="translate(-315.73 -93.4)" fill="#7e57c2" stroke="#263238" stroke-linecap="round" stroke-linejoin="round" stroke-width="1"/>
    </clipPath>
    <clipPath id="clip-path-10">
      <path id="Path_17239" data-name="Path 17239" d="M339.73,93.4s8.439,74.261,8.439,81.577.565,181.711.565,181.711,7.873,6.751,14.624,0c0,0-5.063-180.588-6.751-183.964S350.979,93.4,350.979,93.4Z" transform="translate(-339.73 -93.4)" fill="#7e57c2" stroke="#263238" stroke-linecap="round" stroke-linejoin="round" stroke-width="1"/>
    </clipPath>
    <clipPath id="clip-path-11">
      <path id="Path_17243" data-name="Path 17243" d="M367.73,92.73l3.013,262.731s6.025,9,11.612,0l-4.734-261.6Z" transform="translate(-367.73 -92.73)" fill="#7e57c2" stroke="#263238" stroke-linecap="round" stroke-linejoin="round" stroke-width="1"/>
    </clipPath>
    <clipPath id="clip-path-12">
      <path id="Path_17247" data-name="Path 17247" d="M400.317,92.07V355.881s-4.692,6.27-11.257,0V92.07Z" transform="translate(-389.06 -92.07)" fill="#7e57c2" stroke="#263238" stroke-linecap="round" stroke-linejoin="round" stroke-width="1"/>
    </clipPath>
    <clipPath id="clip-path-13">
      <path id="Path_17271" data-name="Path 17271" d="M264.3,314.946c2.11-10.337-1.688-25.527-2.743-28.9a11.072,11.072,0,0,0-3.164-5.063,46.083,46.083,0,0,1-20.253,0s-4.219,5.063-6.962,15.4,2.11,24.894,4.219,29.746,1.9,7.173,1.055,12.447-2.321,13.08-.633,20.042,5.485,22.574,5.485,24.472a3.6,3.6,0,0,1-.177,1.122,6.169,6.169,0,0,0,4.54.515c-.059-1.578-.143-3.038-.143-3.958,0-2.954,1.055-19.831,1.055-24.261v-5.468s1.62,21.046,1.865,26.59c1.688-.928,3.7-.363,5.316.489v-.287c0-1.9,2.532-15.823,2.743-24.261s-2.321-12.236-2.11-14.768S262.191,325.283,264.3,314.946Z" transform="translate(-230.36 -280.98)" fill="#7e57c2" stroke="#263238" stroke-linecap="round" stroke-linejoin="round" stroke-width="1"/>
    </clipPath>
    <clipPath id="clip-path-14">
      <path id="Path_17277" data-name="Path 17277" d="M290.5,204.794a7.021,7.021,0,0,0-4.135-2.16c-2.734,2.667-5.57,5.063-6.751,6.236-2.321,2.321-5.485,7.806-5.485,7.806s-5.063,4.852-9.072,6.329-13.713,8.017-13.713,8.017a14.877,14.877,0,0,0-10.177-1.249,14.877,14.877,0,0,0-10.177,1.249s-9.7-6.54-13.713-8.017-9.072-6.329-9.072-6.329-3.165-5.485-5.485-7.806c-1.527-1.519-5.907-5.139-9.148-8.7a7.2,7.2,0,0,0-3.072,2.16c2.371,4.346,5.983,10.861,7.418,12.869,2.211,3.114,6.751,6.928,8.937,9.342s13.131,11.772,15.038,13.148,4.219,5.721,4.219,5.721-2.532,5.629-3.519,8.835a36.766,36.766,0,0,1-3.308,6.928s10.034,4.616,15.856,5.823a30.852,30.852,0,0,0,12.017,0c5.823-1.207,15.865-5.823,15.865-5.823a36.557,36.557,0,0,1-3.316-6.928c-1-3.207-3.511-8.835-3.511-8.835s2.3-4.312,4.219-5.721,12.852-10.742,15.063-13.147,6.751-6.228,8.937-9.342C285.579,213.528,288.246,208.828,290.5,204.794Z" transform="translate(-190.5 -200.17)" fill="none" stroke="#263238" stroke-linecap="round" stroke-linejoin="round" stroke-width="1"/>
    </clipPath>
  </defs>
  <g id="dbe5f0727b69487016ffd67a6689e75a-2" data-name="dbe5f0727b69487016ffd67a6689e75a" fill="#fff" stroke="#ededed" stroke-width="1">
    <rect width="536" height="341" rx="10" stroke="none"/>
    <rect x="0.5" y="0.5" width="535" height="340" rx="9.5" fill="none"/>
  </g>
  <g id="Mask_Group_4" data-name="Mask Group 4" transform="translate(-707 -345)" clip-path="url(#clip-path)">
    <g id="Sunny_day-bro" data-name="Sunny day-bro" transform="translate(754.719 310.182)">
      <g id="freepik--background-simple--inject-31" transform="translate(63.61 58.018)">
        <path id="Path_17176" data-name="Path 17176" d="M371.4,282.9c6.675-62.151-25.637-144.766-59.138-178.9-60.472-61.6-110.716-49.679-149.787-27.62s-44.658,95.7-71.645,129.028S48.5,283.565,89.437,328.181,163.4,350.121,206.2,347.294s99.577,19.409,130.251.084C357.9,333.851,368.454,310.4,371.4,282.9Z" transform="translate(-64.279 -58.099)" fill="#7e57c2"/>
        <path id="Path_17177" data-name="Path 17177" d="M371.4,282.9c6.675-62.151-25.637-144.766-59.138-178.9-60.472-61.6-110.716-49.679-149.787-27.62s-44.658,95.7-71.645,129.028S48.5,283.565,89.437,328.181,163.4,350.121,206.2,347.294s99.577,19.409,130.251.084C357.9,333.851,368.454,310.4,371.4,282.9Z" transform="translate(-64.279 -58.099)" fill="#fff" opacity="0.7"/>
        <path id="Path_17178" data-name="Path 17178" d="M348.748,162.06c16.32,37.459,26.717,82.9,22.649,120.758-2.312,21.595-9.342,40.717-22.649,54.506ZM93.942,201.182q-1.511,2.177-3.114,4.169c-27,33.316-42.329,78.134-1.392,122.749,1.519,1.646,3.021,3.19,4.506,4.667ZM299,87.606C244.4,44.18,198.649,55.893,162.464,76.323c-6.6,3.721-12.236,8.92-17.181,11.283Z" transform="translate(-64.278 -58.018)" fill="#7e57c2"/>
        <path id="Path_17179" data-name="Path 17179" d="M348.748,162.06c16.32,37.459,26.717,82.9,22.649,120.758-2.312,21.595-9.342,40.717-22.649,54.506ZM93.942,201.182q-1.511,2.177-3.114,4.169c-27,33.316-42.329,78.134-1.392,122.749,1.519,1.646,3.021,3.19,4.506,4.667ZM299,87.606C244.4,44.18,198.649,55.893,162.464,76.323c-6.6,3.721-12.236,8.92-17.181,11.283Z" transform="translate(-64.278 -58.018)" fill="#fff" opacity="0.7"/>
      </g>
      <g id="freepik--Floor--inject-31" transform="translate(60 344.075)">
        <ellipse id="Ellipse_4" data-name="Ellipse 4" cx="159.07" cy="22.363" rx="159.07" ry="22.363" fill="#263238"/>
        <g id="Group_5165" data-name="Group 5165" clip-path="url(#clip-path-2)">
          <path id="Path_17180" data-name="Path 17180" d="M226.007,407.9l6.962,4.219-3.806,31.223h7.856l3.755-32.5,6.329,1.477,7.527,30.835c21.493-.4,41.637-1.392,59.552-2.861L281.694,407.39H189.375L155.35,440.419c17.721,1.426,37.653,2.38,58.843,2.743Z" transform="translate(-74.887 -398.622)" fill="#fff" opacity="0.5"/>
        </g>
      </g>
      <g id="freepik--Trees--inject-31" transform="translate(143.053 194.103)">
        <path id="Path_17181" data-name="Path 17181" d="M181.31,382.637,239.664,353l26.624,18.371,23.8-15.409v33.789H184.711Z" transform="translate(-161.993 -240.158)" fill="#7e57c2"/>
        <path id="Path_17182" data-name="Path 17182" d="M181.31,382.637,239.664,353l26.624,18.371,23.8-15.409v33.789H184.711Z" transform="translate(-161.993 -240.158)" fill="#fff" opacity="0.3"/>
        <path id="Path_17183" data-name="Path 17183" d="M167.441,337.856s20.709,2.051,31.223,14.894c0,0,11.1-14.877,31.012-14.574a40.261,40.261,0,1,0-62.227-.287Z" transform="translate(-158.419 -227.546)" fill="#7e57c2"/>
        <path id="Path_17184" data-name="Path 17184" d="M167.441,337.856s20.709,2.051,31.223,14.894c0,0,11.1-14.877,31.012-14.574a40.261,40.261,0,1,0-62.227-.287Z" transform="translate(-158.419 -227.546)" fill="#fff" opacity="0.4"/>
        <path id="Path_17185" data-name="Path 17185" d="M205.15,275.61l-.7,103.838h3.494Z" transform="translate(-165.606 -228.075)" fill="#263238"/>
        <path id="Path_17186" data-name="Path 17186" d="M206.456,359.96s7-12.591,19.578-16.43c0,0-13.283,3.148-19.924,13.983Z" transform="translate(-165.865 -238.68)" fill="#263238"/>
        <path id="Path_17187" data-name="Path 17187" d="M206.456,317.73s7-12.582,19.578-16.43c0,0-13.283,3.148-19.924,13.983Z" transform="translate(-165.865 -232.086)" fill="#263238"/>
        <path id="Path_17188" data-name="Path 17188" d="M206.456,338.86s7-12.582,19.578-16.43c0,0-13.283,3.148-19.924,13.983Z" transform="translate(-165.865 -235.385)" fill="#263238"/>
        <path id="Path_17189" data-name="Path 17189" d="M201.8,328.5s-6.751-12.582-18.894-16.43c0,0,12.818,3.148,19.223,13.983Z" transform="translate(-162.243 -233.768)" fill="#263238"/>
        <path id="Path_17190" data-name="Path 17190" d="M201.8,349.22s-6.751-12.591-18.894-16.43c0,0,12.818,3.139,19.223,13.983Z" transform="translate(-162.243 -237.003)" fill="#263238"/>
        <path id="Path_17191" data-name="Path 17191" d="M247.078,312.427s29.384,2.9,44.278,21.1c0,0,15.738-21.1,44-20.666a57.122,57.122,0,1,0-88.286-.405Z" transform="translate(-170.259 -219.281)" fill="#7e57c2"/>
        <path id="Path_17192" data-name="Path 17192" d="M247.078,312.427s29.384,2.9,44.278,21.1c0,0,15.738-21.1,44-20.666a57.122,57.122,0,1,0-88.286-.405Z" transform="translate(-170.259 -219.281)" fill="#fff" opacity="0.4"/>
        <path id="Path_17193" data-name="Path 17193" d="M300.586,224.09l-1,147.314h4.962Z" transform="translate(-180.46 -220.032)" fill="#263238"/>
        <path id="Path_17194" data-name="Path 17194" d="M302.438,343.8s9.924-17.856,27.78-23.308c0,0-18.852,4.464-28.278,19.839Z" transform="translate(-180.827 -235.082)" fill="#263238"/>
        <path id="Path_17195" data-name="Path 17195" d="M302.438,283.846s9.924-17.856,27.78-23.316c0,0-18.852,4.464-28.278,19.839Z" transform="translate(-180.827 -225.721)" fill="#263238"/>
        <path id="Path_17196" data-name="Path 17196" d="M302.438,313.818s9.924-17.848,27.78-23.308c0,0-18.852,4.464-28.278,19.839Z" transform="translate(-180.827 -230.402)" fill="#263238"/>
        <path id="Path_17197" data-name="Path 17197" d="M295.827,299.128S286.257,281.271,269,275.82c0,0,18.185,4.464,27.282,19.839Z" transform="translate(-175.684 -228.108)" fill="#263238"/>
        <path id="Path_17198" data-name="Path 17198" d="M295.827,328.516S286.257,310.66,269,305.2c0,0,18.185,4.464,27.282,19.839Z" transform="translate(-175.684 -232.695)" fill="#263238"/>
      </g>
      <g id="freepik--Clouds--inject-31" transform="translate(149.779 113.665)">
        <path id="Path_17199" data-name="Path 17199" d="M244.136,144.922c-3.494-1.907-5.063-.321-6.354-1.907s3.494-5.713-6.034-9.84c0,0-.633-8.894-13.654-9.207s-9.527,8.886-13.012,11.105-4.447-1.266-7.941.954-1.907,6.667-4.759,7.308-6.675-2.861-10.126-.641-3.494,4.135-5.063,4.135-4.768-1.274-6.675,0-4.127,2.852-4.127,2.852h80.328S247.621,146.829,244.136,144.922Z" transform="translate(-166.39 -123.961)" fill="#7e57c2"/>
        <path id="Path_17200" data-name="Path 17200" d="M269.716,187.344c-2.118-1.148-3.08-.186-3.848-1.148s2.118-3.46-3.646-5.958c0,0-.388-5.375-8.261-5.57s-5.764,5.384-7.873,6.751-2.692-.768-4.8.574-1.156,4.034-2.878,4.422-4.034-1.73-6.152-.388-2.11,2.532-3.072,2.532-2.878-.768-4.034,0-2.532,1.73-2.532,1.73h48.6A2.51,2.51,0,0,0,269.716,187.344Z" transform="translate(-175.169 -131.877)" fill="#7e57c2"/>
        <path id="Path_17201" data-name="Path 17201" d="M313.054,197.344c-2.11-1.148-3.072-.186-3.84-1.148s2.11-3.46-3.654-5.958c0,0-.38-5.375-8.253-5.57s-5.764,5.384-7.882,6.751-2.683-.768-4.8.574-1.148,4.034-2.878,4.422-4.034-1.73-6.143-.388-2.118,2.532-3.08,2.532-2.878-.768-4.034,0-2.489,1.73-2.489,1.73h48.59A2.554,2.554,0,0,0,313.054,197.344Z" transform="translate(-181.942 -133.438)" fill="#7e57c2"/>
        <path id="Path_17202" data-name="Path 17202" d="M244.136,144.922c-3.494-1.907-5.063-.321-6.354-1.907s3.494-5.713-6.034-9.84c0,0-.633-8.894-13.654-9.207s-9.527,8.886-13.012,11.105-4.447-1.266-7.941.954-1.907,6.667-4.759,7.308-6.675-2.861-10.126-.641-3.494,4.135-5.063,4.135-4.768-1.274-6.675,0-4.127,2.852-4.127,2.852h80.328S247.621,146.829,244.136,144.922Z" transform="translate(-166.39 -123.961)" fill="#fff" opacity="0.4"/>
        <path id="Path_17203" data-name="Path 17203" d="M269.716,187.344c-2.118-1.148-3.08-.186-3.848-1.148s2.118-3.46-3.646-5.958c0,0-.388-5.375-8.261-5.57s-5.764,5.384-7.873,6.751-2.692-.768-4.8.574-1.156,4.034-2.878,4.422-4.034-1.73-6.152-.388-2.11,2.532-3.072,2.532-2.878-.768-4.034,0-2.532,1.73-2.532,1.73h48.6A2.51,2.51,0,0,0,269.716,187.344Z" transform="translate(-175.169 -131.877)" fill="#fff" opacity="0.4"/>
        <path id="Path_17204" data-name="Path 17204" d="M313.054,197.344c-2.11-1.148-3.072-.186-3.84-1.148s2.11-3.46-3.654-5.958c0,0-.38-5.375-8.253-5.57s-5.764,5.384-7.882,6.751-2.683-.768-4.8.574-1.148,4.034-2.878,4.422-4.034-1.73-6.143-.388-2.118,2.532-3.08,2.532-2.878-.768-4.034,0-2.489,1.73-2.489,1.73h48.59A2.554,2.554,0,0,0,313.054,197.344Z" transform="translate(-181.942 -133.438)" fill="#fff" opacity="0.4"/>
      </g>
      <g id="freepik--Sun--inject-31" transform="translate(225.26 96.394)">
        <circle id="Ellipse_6" data-name="Ellipse 6" cx="10.692" cy="10.692" r="10.692" transform="matrix(0.63, -0.777, 0.777, 0.63, 0, 16.607)" fill="#7e57c2"/>
        <circle id="Ellipse_7" data-name="Ellipse 7" cx="10.692" cy="10.692" r="10.692" transform="matrix(0.63, -0.777, 0.777, 0.63, 0, 16.607)" fill="#fff" opacity="0.4"/>
      </g>
      <g id="freepik--Window--inject-31" transform="translate(85.839 85.344)">
        <rect id="Rectangle_3518" data-name="Rectangle 3518" width="3.949" height="252.039" transform="translate(132.648 2.81)" fill="#263238" stroke="#263238" stroke-linecap="round" stroke-linejoin="round" stroke-width="1"/>
        <rect id="Rectangle_3519" data-name="Rectangle 3519" width="3.949" height="199.162" transform="translate(234.199 62.615) rotate(90)" fill="#263238" stroke="#263238" stroke-linecap="round" stroke-linejoin="round" stroke-width="1"/>
        <rect id="Rectangle_3520" data-name="Rectangle 3520" width="3.949" height="199.162" transform="translate(234.208 126.935) rotate(90)" fill="#263238" stroke="#263238" stroke-linecap="round" stroke-linejoin="round" stroke-width="1"/>
        <rect id="Rectangle_3521" data-name="Rectangle 3521" width="241.347" height="7.932" transform="translate(13.823 254.511)" fill="#263238" stroke="#263238" stroke-linecap="round" stroke-linejoin="round" stroke-width="1"/>
        <path id="Path_17205" data-name="Path 17205" d="M192.843,93.4l-24.6,74.109L170.9,356.131l-4.5,2.245L98.33,356.088V93.4Z" transform="translate(-91.824 -90.868)" fill="#fff" stroke="#263238" stroke-linecap="round" stroke-linejoin="round" stroke-width="1"/>
        <path id="Path_17206" data-name="Path 17206" d="M210.294,92.07s-26.945,70.826-27.046,75.839,9.612,190.259,9.612,190.259-7.316,5.063-14.067,0L177.67,167.453,197.923,92.07Z" transform="translate(-104.211 -90.661)" fill="#fff"/>
        <g id="Group_5166" data-name="Group 5166" transform="translate(73.459 1.409)" clip-path="url(#clip-path-3)">
          <path id="Path_17207" data-name="Path 17207" d="M207.294,92.07s-26.945,70.826-27.046,75.839,9.612,190.259,9.612,190.259-7.316,5.063-14.067,0L174.67,167.453,194.923,92.07Z" transform="translate(-177.202 -92.07)" fill="#7e57c2"/>
          <path id="Path_17208" data-name="Path 17208" d="M207.294,92.07s-26.945,70.826-27.046,75.839,9.612,190.259,9.612,190.259-7.316,5.063-14.067,0L174.67,167.453,194.923,92.07Z" transform="translate(-177.202 -92.07)" fill="#fff" opacity="0.4"/>
        </g>
        <path id="Path_17210" data-name="Path 17210" d="M210.294,92.07s-26.945,70.826-27.046,75.839,9.612,190.259,9.612,190.259-7.316,5.063-14.067,0L177.67,167.453,197.923,92.07Z" transform="translate(-104.211 -90.661)" fill="none" stroke="#263238" stroke-linecap="round" stroke-linejoin="round" stroke-width="1"/>
        <path id="Path_17211" data-name="Path 17211" d="M180.108,93.4s-12.38,69.763-12.937,74.261,1.122,189.027,1.122,189.027-6.186,8.439-14.624,0l6.751-190.715L171.1,93.4Z" transform="translate(-100.464 -90.868)" fill="#7e57c2"/>
        <g id="Group_5167" data-name="Group 5167" transform="translate(53.206 2.532)" clip-path="url(#clip-path-4)">
          <path id="Path_17212" data-name="Path 17212" d="M180.108,93.4s-12.38,69.763-12.937,74.261,1.122,189.027,1.122,189.027-6.186,8.439-14.624,0l6.751-190.715L171.1,93.4Z" transform="translate(-153.67 -93.4)" fill="#fff" opacity="0.4"/>
        </g>
        <path id="Path_17214" data-name="Path 17214" d="M180.108,93.4s-12.38,69.763-12.937,74.261,1.122,189.027,1.122,189.027-6.186,8.439-14.624,0l6.751-190.715L171.1,93.4Z" transform="translate(-100.464 -90.868)" fill="none" stroke="#263238" stroke-linecap="round" stroke-linejoin="round" stroke-width="1"/>
        <path id="Path_17215" data-name="Path 17215" d="M156.628,93.4s-8.439,74.261-8.439,81.577-.565,181.711-.565,181.711-7.873,6.751-14.624,0c0,0,5.063-180.588,6.751-183.964S145.38,93.4,145.38,93.4Z" transform="translate(-97.237 -90.868)" fill="#7e57c2"/>
        <g id="Group_5168" data-name="Group 5168" transform="translate(35.763 2.532)" clip-path="url(#clip-path-5)">
          <path id="Path_17216" data-name="Path 17216" d="M156.628,93.4s-8.439,74.261-8.439,81.577-.565,181.711-.565,181.711-7.873,6.751-14.624,0c0,0,5.063-180.588,6.751-183.964S145.38,93.4,145.38,93.4Z" transform="translate(-133 -93.4)" fill="#fff" opacity="0.4"/>
        </g>
        <path id="Path_17218" data-name="Path 17218" d="M156.628,93.4s-8.439,74.261-8.439,81.577-.565,181.711-.565,181.711-7.873,6.751-14.624,0c0,0,5.063-180.588,6.751-183.964S145.38,93.4,145.38,93.4Z" transform="translate(-97.237 -90.868)" fill="none" stroke="#263238" stroke-linecap="round" stroke-linejoin="round" stroke-width="1"/>
        <path id="Path_17219" data-name="Path 17219" d="M130.294,92.73l-3.013,262.731s-6.025,9-11.612,0l4.726-261.6Z" transform="translate(-94.531 -90.764)" fill="#7e57c2"/>
        <g id="Group_5169" data-name="Group 5169" transform="translate(21.139 1.966)" clip-path="url(#clip-path-6)">
          <path id="Path_17220" data-name="Path 17220" d="M130.294,92.73l-3.013,262.731s-6.025,9-11.612,0l4.726-261.6Z" transform="translate(-115.67 -92.73)" fill="#fff" opacity="0.4"/>
        </g>
        <path id="Path_17222" data-name="Path 17222" d="M130.294,92.73l-3.013,262.731s-6.025,9-11.612,0l4.726-261.6Z" transform="translate(-94.531 -90.764)" fill="none" stroke="#263238" stroke-linecap="round" stroke-linejoin="round" stroke-width="1"/>
        <path id="Path_17223" data-name="Path 17223" d="M98.33,92.07V355.881s4.692,6.27,11.257,0V92.07Z" transform="translate(-91.824 -90.661)" fill="#7e57c2"/>
        <g id="Group_5170" data-name="Group 5170" transform="translate(6.506 1.409)" clip-path="url(#clip-path-7)">
          <path id="Path_17224" data-name="Path 17224" d="M98.33,92.07V355.881s4.692,6.27,11.257,0V92.07Z" transform="translate(-98.33 -92.07)" fill="#fff" opacity="0.4"/>
        </g>
        <path id="Path_17226" data-name="Path 17226" d="M98.33,92.07V355.881s4.692,6.27,11.257,0V92.07Z" transform="translate(-91.824 -90.661)" fill="none" stroke="#263238" stroke-linecap="round" stroke-linejoin="round" stroke-width="1"/>
        <path id="Path_17227" data-name="Path 17227" d="M290.4,93.4,315,167.509l-2.658,188.622,4.5,2.245,68.075-2.287V93.4Z" transform="translate(-121.812 -90.868)" fill="#fff" stroke="#263238" stroke-linecap="round" stroke-linejoin="round" stroke-width="1"/>
        <path id="Path_17228" data-name="Path 17228" d="M284.4,92.07s26.945,70.818,27.046,75.839-9.612,190.259-9.612,190.259,7.316,5.063,14.067,0l1.122-190.715L296.771,92.07Z" transform="translate(-120.875 -90.661)" fill="#fff"/>
        <g id="Group_5171" data-name="Group 5171" transform="translate(163.525 1.409)" clip-path="url(#clip-path-8)">
          <path id="Path_17229" data-name="Path 17229" d="M287.4,92.07s26.945,70.818,27.046,75.839-9.612,190.259-9.612,190.259,7.316,5.063,14.067,0l1.122-190.715L299.771,92.07Z" transform="translate(-284.868 -92.07)" fill="#7e57c2"/>
          <path id="Path_17230" data-name="Path 17230" d="M287.4,92.07s26.945,70.818,27.046,75.839-9.612,190.259-9.612,190.259,7.316,5.063,14.067,0l1.122-190.715L299.771,92.07Z" transform="translate(-284.868 -92.07)" fill="#fff" opacity="0.4"/>
        </g>
        <path id="Path_17232" data-name="Path 17232" d="M284.4,92.07s26.945,70.818,27.046,75.839-9.612,190.259-9.612,190.259,7.316,5.063,14.067,0l1.122-190.715L296.771,92.07Z" transform="translate(-120.875 -90.661)" fill="none" stroke="#263238" stroke-linecap="round" stroke-linejoin="round" stroke-width="1"/>
        <path id="Path_17233" data-name="Path 17233" d="M315.73,93.4s12.38,69.763,12.937,74.261-1.122,189.027-1.122,189.027,6.186,8.439,14.624,0l-6.751-190.715L324.734,93.4Z" transform="translate(-125.766 -90.868)" fill="#7e57c2"/>
        <g id="Group_5172" data-name="Group 5172" transform="translate(189.964 2.532)" clip-path="url(#clip-path-9)">
          <path id="Path_17234" data-name="Path 17234" d="M315.73,93.4s12.38,69.763,12.937,74.261-1.122,189.027-1.122,189.027,6.186,8.439,14.624,0l-6.751-190.715L324.734,93.4Z" transform="translate(-315.73 -93.4)" fill="#fff" opacity="0.4"/>
        </g>
        <path id="Path_17236" data-name="Path 17236" d="M315.73,93.4s12.38,69.763,12.937,74.261-1.122,189.027-1.122,189.027,6.186,8.439,14.624,0l-6.751-190.715L324.734,93.4Z" transform="translate(-125.766 -90.868)" fill="none" stroke="#263238" stroke-linecap="round" stroke-linejoin="round" stroke-width="1"/>
        <path id="Path_17237" data-name="Path 17237" d="M339.73,93.4s8.439,74.261,8.439,81.577.565,181.711.565,181.711,7.873,6.751,14.624,0c0,0-5.063-180.588-6.751-183.964S350.979,93.4,350.979,93.4Z" transform="translate(-129.513 -90.868)" fill="#7e57c2"/>
        <g id="Group_5173" data-name="Group 5173" transform="translate(210.217 2.532)" clip-path="url(#clip-path-10)">
          <path id="Path_17238" data-name="Path 17238" d="M339.73,93.4s8.439,74.261,8.439,81.577.565,181.711.565,181.711,7.873,6.751,14.624,0c0,0-5.063-180.588-6.751-183.964S350.979,93.4,350.979,93.4Z" transform="translate(-339.73 -93.4)" fill="#fff" opacity="0.4"/>
        </g>
        <path id="Path_17240" data-name="Path 17240" d="M339.73,93.4s8.439,74.261,8.439,81.577.565,181.711.565,181.711,7.873,6.751,14.624,0c0,0-5.063-180.588-6.751-183.964S350.979,93.4,350.979,93.4Z" transform="translate(-129.513 -90.868)" fill="none" stroke="#263238" stroke-linecap="round" stroke-linejoin="round" stroke-width="1"/>
        <path id="Path_17241" data-name="Path 17241" d="M367.73,92.73l3.013,262.731s6.025,9,11.612,0l-4.734-261.6Z" transform="translate(-133.885 -90.764)" fill="#7e57c2"/>
        <g id="Group_5174" data-name="Group 5174" transform="translate(233.845 1.966)" clip-path="url(#clip-path-11)">
          <path id="Path_17242" data-name="Path 17242" d="M367.73,92.73l3.013,262.731s6.025,9,11.612,0l-4.734-261.6Z" transform="translate(-367.73 -92.73)" fill="#fff" opacity="0.4"/>
        </g>
        <path id="Path_17244" data-name="Path 17244" d="M367.73,92.73l3.013,262.731s6.025,9,11.612,0l-4.734-261.6Z" transform="translate(-133.885 -90.764)" fill="none" stroke="#263238" stroke-linecap="round" stroke-linejoin="round" stroke-width="1"/>
        <path id="Path_17245" data-name="Path 17245" d="M400.317,92.07V355.881s-4.692,6.27-11.257,0V92.07Z" transform="translate(-137.215 -90.661)" fill="#7e57c2"/>
        <g id="Group_5175" data-name="Group 5175" transform="translate(251.845 1.409)" clip-path="url(#clip-path-12)">
          <path id="Path_17246" data-name="Path 17246" d="M400.317,92.07V355.881s-4.692,6.27-11.257,0V92.07Z" transform="translate(-389.06 -92.07)" fill="#fff" opacity="0.4"/>
        </g>
        <path id="Path_17248" data-name="Path 17248" d="M400.317,92.07V355.881s-4.692,6.27-11.257,0V92.07Z" transform="translate(-137.215 -90.661)" fill="none" stroke="#263238" stroke-linecap="round" stroke-linejoin="round" stroke-width="1"/>
        <path id="Path_17249" data-name="Path 17249" d="M357.1,90.4H92.308a1.688,1.688,0,0,0-1.688,1.688h0a1.688,1.688,0,0,0,1.688,1.688H357.1a1.688,1.688,0,0,0,1.688-1.688h0A1.688,1.688,0,0,0,357.1,90.4Z" transform="translate(-90.62 -90.4)" fill="#263238" stroke="#263238" stroke-linecap="round" stroke-linejoin="round" stroke-width="1"/>
      </g>
      <g id="freepik--Plant--inject-31" transform="translate(329.969 252.083)">
        <path id="Path_17250" data-name="Path 17250" d="M382.958,305.806c1.418.624,4.894.54,4.9.54s-.751-2.27-.844-2.413c-.759-1.595-3.173-4.219-5.139-3.966A2.346,2.346,0,0,0,380,302.912,4.979,4.979,0,0,0,382.958,305.806Z" transform="translate(-379.918 -289.856)" fill="#263238"/>
        <path id="Path_17251" data-name="Path 17251" d="M428.573,292.108c-1.975-.219-4.312,2.481-5.063,4.1-.067.135-.785,2.43-.751,2.43h.042q-.557.633-1.19,1.392c-.768.945-1.629,2.025-2.532,3.257a41.85,41.85,0,0,0-2.582,4.118,30.379,30.379,0,0,0-2.211,4.97.161.161,0,0,1,0,.059v-2.329c-.228-1.755-1.688-5.013-3.654-5.367a2.337,2.337,0,0,0-2.7,2.2,4.925,4.925,0,0,0,1.882,3.671c.987.886,4.219,1.949,4.439,2.025a41.779,41.779,0,0,0-1.3,5.384c-.186,1.063-.346,2.135-.489,3.215v-1.021c-.228-1.747-1.688-5-3.646-5.367a2.346,2.346,0,0,0-2.709,2.2,4.938,4.938,0,0,0,1.882,3.671,15.99,15.99,0,0,0,4.312,1.992c-.051.413-.11.844-.16,1.24-.236,1.983-.464,3.975-.751,5.907-.093.692-.219,1.359-.338,2.025v-.844c-.228-1.755-1.688-5.013-3.646-5.367a2.346,2.346,0,0,0-2.709,2.2,4.938,4.938,0,0,0,1.882,3.671A14.367,14.367,0,0,0,410.8,333.5c-.143.675-.287,1.367-.456,2.017-.127.447-.219.886-.371,1.325s-.278.844-.422,1.3c-.3.844-.6,1.688-.911,2.456-.211.549-.422,1.072-.633,1.6.11-.684.287-2.017.3-2.135a9.148,9.148,0,0,0-1.224-4.422,3.625,3.625,0,0,0,0-.523,2.338,2.338,0,0,0-2.869-1.983c-1.916.506-3.122,3.865-3.215,5.637,0,.1.059,1.24.118,1.958-.1-.422-.186-.844-.3-1.249-.194-.844-.422-1.688-.658-2.591-.135-.439-.27-.844-.4-1.316s-.312-.844-.464-1.333c-.38-1.038-.844-2.067-1.274-3.1a14.392,14.392,0,0,0,4.413-1.688,4.958,4.958,0,0,0,2.084-3.485,2.338,2.338,0,0,0-2.532-2.4c-1.966.211-3.679,3.376-4.034,5.063,0,.11-.143,1.384-.194,2.084-.278-.616-.557-1.232-.844-1.848-.844-1.772-1.831-3.544-2.759-5.308l-.844-1.629a16.5,16.5,0,0,0,4.574-1.688,4.649,4.649,0,0,0,2.152-3.519,2.346,2.346,0,0,0-2.532-2.405c-1.966.219-3.679,3.375-4.034,5.063,0,.127-.194,1.958-.211,2.422-.624-1.19-1.232-2.388-1.781-3.586a41.927,41.927,0,0,1-1.933-5,16.254,16.254,0,0,0,4.608-1.688c1.046-.844,2.16-2.127,2.152-3.519a2.346,2.346,0,0,0-2.532-2.405c-1.975.219-3.679,3.376-4.042,5.063,0,.135-.2,2.1-.211,2.464a3.038,3.038,0,0,0-.1-.3,30.782,30.782,0,0,1-1-5.274c-.11-.987-.16-1.932-.186-2.852a15.692,15.692,0,0,0,4.65-1.173,4.852,4.852,0,0,0,2.532-3.257,2.346,2.346,0,0,0-2.253-2.667c-1.983,0-4.025,2.928-4.565,4.608,0,.093-.228,1.055-.363,1.764v-1.249c0-1.494.1-2.869.194-4.084.059-.692.127-1.308.194-1.89a15.856,15.856,0,0,0,3.57-3.173,4.824,4.824,0,0,0,.734-4.051,2.346,2.346,0,0,0-3.224-1.333c-1.764.911-2.228,4.456-1.932,6.2,0,.152.692,2.464.717,2.439h0c-.076.557-.152,1.156-.219,1.814-.118,1.215-.245,2.582-.278,4.093a41.518,41.518,0,0,0,.11,4.852,30.478,30.478,0,0,0,.9,5.367.118.118,0,0,1,0,.059c-.312-.489-1.224-1.831-1.308-1.924-1.156-1.342-4.177-3.24-6.008-2.473a2.354,2.354,0,0,0-1.038,3.333,4.925,4.925,0,0,0,3.595,2.025,16.311,16.311,0,0,0,4.827-.759,41.086,41.086,0,0,0,1.882,5.207c.43.987.886,1.975,1.359,2.954-.278-.422-.54-.785-.574-.844-1.165-1.333-4.219-3.24-6.008-2.464a2.337,2.337,0,0,0-1.038,3.325,4.9,4.9,0,0,0,3.595,2.025,15.811,15.811,0,0,0,4.692-.717c.186.371.363.743.549,1.122.9,1.789,1.806,3.57,2.641,5.342.3.624.557,1.249.844,1.882-.253-.371-.464-.675-.506-.726-1.156-1.333-4.177-3.24-6-2.464a2.346,2.346,0,0,0-1.038,3.333,4.889,4.889,0,0,0,3.595,2.017,14.751,14.751,0,0,0,4.557-.684c.262.65.515,1.3.734,1.941.144.439.3.844.422,1.308s.245.886.371,1.316c.2.844.414,1.688.591,2.532.127.574.236,1.131.354,1.688-.287-.624-.844-1.84-.928-1.941-.945-1.494-3.646-3.831-5.561-3.375a2.338,2.338,0,0,0-1.536,3.131,4.835,4.835,0,0,0,3.249,2.532,18.7,18.7,0,0,0,4.852,0c.186.92.354,1.814.506,2.667.515,2.937.844,5.409,1.038,7.139a8.071,8.071,0,0,0,.093.844h-5.966l2.177,42.48h10.126l2.177-42.48h-5.553l.127-.253c.759-1.586,1.814-3.865,2.962-6.658.363-.886.726-1.831,1.1-2.81a16.183,16.183,0,0,0,4.844.38,4.9,4.9,0,0,0,3.426-2.3,2.346,2.346,0,0,0-1.291-3.24c-1.882-.633-4.743,1.5-5.8,2.92-.059.084-.633,1.072-.979,1.688l.447-1.207c.3-.844.574-1.637.844-2.532.127-.43.253-.844.388-1.316s.236-.911.354-1.367c.253-1.072.464-2.177.641-3.283a15.409,15.409,0,0,0,4.6,1.055,4.871,4.871,0,0,0,3.73-1.747,2.346,2.346,0,0,0-.785-3.375c-1.764-.911-4.92.768-6.169,2.017-.076.076-.844,1.072-1.308,1.629.11-.675.211-1.342.3-2.017.245-1.966.43-3.966.624-5.949.059-.616.127-1.224.194-1.831a15.9,15.9,0,0,0,4.751,1.114,4.856,4.856,0,0,0,3.73-1.747,2.346,2.346,0,0,0-.785-3.376c-1.764-.9-4.92.768-6.169,2.017-.093.093-1.24,1.527-1.519,1.907.143-1.333.3-2.667.5-3.975a40.738,40.738,0,0,1,1.148-5.232c.118.042,3.257,1.232,4.776,1.122a4.884,4.884,0,0,0,3.73-1.747,2.346,2.346,0,0,0-.785-3.375c-1.764-.9-4.92.768-6.169,2.017-.1.093-1.333,1.646-1.536,1.941a.946.946,0,0,1,.076-.3,29.884,29.884,0,0,1,2.076-4.953c.447-.886.928-1.688,1.409-2.481a15.734,15.734,0,0,0,4.532,1.586,4.821,4.821,0,0,0,3.9-1.325,2.346,2.346,0,0,0-.405-3.468c-1.688-1.1-4.97.219-6.354,1.325-.076.059-.776.751-1.274,1.266.219-.346.447-.717.667-1.046.844-1.249,1.688-2.338,2.413-3.3.43-.548.844-1.03,1.207-1.477a15.079,15.079,0,0,0,4.726-.675,4.955,4.955,0,0,0,2.852-2.97,2.338,2.338,0,0,0-1.933-2.878Zm-21.814,52.919c-1.19,2.734-2.278,4.97-3.072,6.523-.16.312-.3.591-.43.844h-.135a6.9,6.9,0,0,0-.135-1c-.236-1.747-.616-4.219-1.2-7.19-.186-.937-.405-1.932-.633-2.954a24.517,24.517,0,0,0,2.709-1.274,16.778,16.778,0,0,0,3.949,2.532C407.459,343.39,407.1,344.234,406.759,345.027Z" transform="translate(-379.981 -287.988)" fill="#263238"/>
        <path id="Path_17252" data-name="Path 17252" d="M424.311,306.169s.633-2.312.65-2.464c.245-1.755-.312-5.283-2.093-6.143a2.338,2.338,0,0,0-3.19,1.409,4.908,4.908,0,0,0,.844,4.042C421.366,304.312,424.311,306.169,424.311,306.169Z" transform="translate(-386.098 -289.45)" fill="#263238"/>
      </g>
      <g id="freepik--Chair--inject-31" transform="translate(83.308 263.634)">
        <rect id="Rectangle_3522" data-name="Rectangle 3522" width="49.425" height="10.979" transform="translate(16.11 67.816)" fill="#263238"/>
        <g id="Group_5176" data-name="Group 5176" transform="translate(16.11 67.816)" opacity="0.5">
          <rect id="Rectangle_3523" data-name="Rectangle 3523" width="49.425" height="10.979" fill="#fff"/>
        </g>
        <rect id="Rectangle_3524" data-name="Rectangle 3524" width="49.425" height="10.979" transform="translate(16.11 67.816)" fill="none" stroke="#263238" stroke-width="1"/>
        <path id="Path_17253" data-name="Path 17253" d="M105.344,382l-7.35,30.1a1.148,1.148,0,0,0,1.114,1.418h0a1.148,1.148,0,0,0,1.038-.675l12.877-28.616Z" transform="translate(-89.235 -314.218)" fill="#263238"/>
        <path id="Path_17254" data-name="Path 17254" d="M169.129,312.743c.591-7.418-2.928-12.4-14.962-10.751-10.126,1.376-17.772,5.544-25.384,6.143-7.595-.6-15.274-4.768-25.384-6.143-4.4-.6-11.932.278-14.6,5.063-3.08,5.5.574,16.126,2.878,21.1,4.548,9.747,8.658,21.941,13.5,31.519l16.346,2.194h14.515l16.32-2.236C155.72,353,168.108,325.139,169.129,312.743Z" transform="translate(-87.62 -301.677)" fill="#7e57c2"/>
        <path id="Path_17255" data-name="Path 17255" d="M172.451,301.71c2.608,1.688,6.793,5.316,6.143,10.759-.937,7.814-7.814,29.7-7.814,29.7l2.329-.042c4.219-10.3,8.439-22.337,9-29.384C182.6,306.562,180.248,302.073,172.451,301.71Z" transform="translate(-100.604 -301.682)" fill="#fff"/>
        <path id="Path_17256" data-name="Path 17256" d="M169.129,312.743c.591-7.418-2.928-12.4-14.962-10.751-10.126,1.376-17.772,5.544-25.384,6.143-7.595-.6-15.274-4.768-25.384-6.143-4.4-.6-11.932.278-14.6,5.063-3.08,5.5.574,16.126,2.878,21.1,4.548,9.747,8.658,21.941,13.5,31.519l16.346,2.194h14.515l16.32-2.236C155.72,353,168.108,325.139,169.129,312.743Z" transform="translate(-87.62 -301.677)" fill="none" stroke="#263238" stroke-width="1"/>
        <path id="Path_17257" data-name="Path 17257" d="M165.088,382l7.35,30.067a1.148,1.148,0,0,1-1.114,1.418h0a1.156,1.156,0,0,1-1.046-.675L157.4,384.228Z" transform="translate(-98.515 -314.218)" fill="#263238"/>
        <path id="Path_17258" data-name="Path 17258" d="M105.344,382l-7.35,30.1a1.148,1.148,0,0,0,1.114,1.418h0a1.148,1.148,0,0,0,1.038-.675l12.877-28.616Z" transform="translate(-89.235 -314.218)" fill="#fff" opacity="0.5"/>
        <path id="Path_17259" data-name="Path 17259" d="M165.088,382l7.35,30.067a1.148,1.148,0,0,1-1.114,1.418h0a1.156,1.156,0,0,1-1.046-.675L157.4,384.228Z" transform="translate(-98.515 -314.218)" fill="#fff" opacity="0.5"/>
        <path id="Path_17260" data-name="Path 17260" d="M105.344,382l-7.35,30.1a1.148,1.148,0,0,0,1.114,1.418h0a1.148,1.148,0,0,0,1.038-.675l12.877-28.616Z" transform="translate(-89.235 -314.218)" fill="none" stroke="#263238" stroke-width="1"/>
        <path id="Path_17261" data-name="Path 17261" d="M165.728,349.029c-.608-9.072-9.072-3.629-9.072-3.629-4.219,3.629-2.413,17.949-7.856,18.565-4.624.515-16.253,1.03-19.62,1.173-3.375-.143-14.987-.658-19.62-1.173-5.435-.6-3.62-14.92-7.856-18.565,0,0-8.439-5.443-9.063,3.629s4.219,25.384,9.671,29.012c5.063,3.375,17.426,4.127,25.941,4.219h1.865c8.515-.093,20.877-.844,25.941-4.219C161.491,374.446,166.352,358.126,165.728,349.029Z" transform="translate(-88.395 -308.25)" fill="#7e57c2"/>
        <path id="Path_17262" data-name="Path 17262" d="M172.31,343.854l.076.2a9.181,9.181,0,0,1,2.194,6.253c0,4.067-2.818,21.257-8.759,27.848a3.992,3.992,0,0,0-.751,1.139,12.653,12.653,0,0,0,2.346-1.19c5.443-3.629,10.278-19.949,9.671-29.012C176.825,344.521,174.5,343.626,172.31,343.854Z" transform="translate(-99.712 -308.257)" fill="#fff"/>
        <path id="Path_17263" data-name="Path 17263" d="M165.779,349.029c-.6-9.072-9.063-3.629-9.063-3.629-4.219,3.629-2.413,17.949-7.856,18.565-4.633.515-16.253,1.03-19.62,1.173-3.375-.143-14.987-.658-19.62-1.173-5.443-.6-3.629-14.92-7.856-18.565,0,0-8.439-5.443-9.063,3.629s4.219,25.384,9.671,29.012c5.063,3.375,17.426,4.127,25.932,4.219h1.865c8.515-.093,20.886-.844,25.941-4.219C161.551,374.446,166.361,358.126,165.779,349.029Z" transform="translate(-88.405 -308.25)" fill="none" stroke="#263238" stroke-width="1"/>
        <path id="Path_17264" data-name="Path 17264" d="M165.088,382l7.35,30.067a1.148,1.148,0,0,1-1.114,1.418h0a1.156,1.156,0,0,1-1.046-.675L157.4,384.228Z" transform="translate(-98.515 -314.218)" fill="none" stroke="#263238" stroke-width="1"/>
        <path id="Path_17265" data-name="Path 17265" d="M133.793,385.446h.11c8.27-.211,18.81-1.122,23.384-4.169,5.806-11.536,3.08-15.755,1.148-16.65-2.321-1.08-4.219.3-6.43,1.468a2.987,2.987,0,0,1-1.975,1.089c-3.122.346-9.443.7-14.253.928h0l-5.392.245-5.392-.245h0c-4.81-.228-11.131-.582-14.253-.928a2.988,2.988,0,0,1-1.975-1.089c-2.245-1.165-4.11-2.532-6.43-1.468-1.932.895-4.658,5.114,1.148,16.65,4.574,3.046,15.114,3.958,23.384,4.169h6.928Z" transform="translate(-89.549 -311.444)" fill="#7e57c2"/>
        <path id="Path_17266" data-name="Path 17266" d="M133.824,385.446h.11c8.278-.211,18.818-1.122,23.384-4.169,5.814-11.536,3.089-15.755,1.148-16.65-2.312-1.08-4.177.3-6.422,1.468a2.987,2.987,0,0,1-1.975,1.089c-3.131.346-9.451.7-14.261.928h0l-5.384.245-5.392-.245h0c-4.81-.228-11.131-.582-14.261-.928a2.988,2.988,0,0,1-1.975-1.089c-2.245-1.165-4.11-2.532-6.422-1.468-1.941.895-4.667,5.114,1.148,16.65,4.565,3.046,15.105,3.958,23.384,4.169h6.92Z" transform="translate(-89.554 -311.444)" fill="none" stroke="#263238" stroke-width="1"/>
      </g>
      <g id="freepik--Character--inject-31" transform="translate(161.104 157.967)">
        <path id="Path_17267" data-name="Path 17267" d="M238.14,281s-4.219,5.063-6.962,15.4,2.11,24.894,4.219,29.746,1.9,7.173,1.055,12.447-2.321,13.08-.633,20.042,5.485,22.574,5.485,24.472a4.565,4.565,0,0,1-1.477,3.165,1.848,1.848,0,0,0-2.11,1.9c0,2.11,5.274,4.219,6.962,4.219s.844-8.65.844-11.6,1.055-19.831,1.055-24.261v-5.485s1.9,24.683,1.9,27.637-1.055,6.118,0,6.962,2.743,1.477,2.954,3.165-.422,1.688,1.055,2.321,5.274,2.11,6.329,1.477-1.055-3.164-2.532-5.907a23.815,23.815,0,0,1-2.532-8.861c0-1.9,2.532-15.823,2.743-24.261s-2.321-12.236-2.11-14.768,7.806-13.5,9.915-23.839-1.688-25.527-2.743-28.9A11.072,11.072,0,0,0,258.393,281,46.083,46.083,0,0,1,238.14,281Z" transform="translate(-187.702 -192.781)" fill="#fff" stroke="#263238" stroke-linecap="round" stroke-linejoin="round" stroke-width="1"/>
        <path id="Path_17268" data-name="Path 17268" d="M264.3,314.946c2.11-10.337-1.688-25.527-2.743-28.9a11.072,11.072,0,0,0-3.164-5.063,46.083,46.083,0,0,1-20.253,0s-4.219,5.063-6.962,15.4,2.11,24.894,4.219,29.746,1.9,7.173,1.055,12.447-2.321,13.08-.633,20.042,5.485,22.574,5.485,24.472a3.6,3.6,0,0,1-.177,1.122,6.169,6.169,0,0,0,4.54.515c-.059-1.578-.143-3.038-.143-3.958,0-2.954,1.055-19.831,1.055-24.261v-5.468s1.62,21.046,1.865,26.59c1.688-.928,3.7-.363,5.316.489v-.287c0-1.9,2.532-15.823,2.743-24.261s-2.321-12.236-2.11-14.768S262.191,325.283,264.3,314.946Z" transform="translate(-187.702 -192.778)" fill="#7e57c2"/>
        <g id="Group_5177" data-name="Group 5177" transform="translate(42.657 88.202)" clip-path="url(#clip-path-13)">
          <path id="Path_17269" data-name="Path 17269" d="M231.179,296.381c-1.561,5.907-.658,13.156.8,19.215.844-3.544,1.764-7.485,2.042-8.6.54-2.16-2.16-3.519-1.35-6.219.658-2.194,5.764-14.7,7.662-19.342-.726-.127-1.451-.278-2.194-.456C238.141,281,233.921,286.06,231.179,296.381Z" transform="translate(-230.36 -280.98)" fill="#fff"/>
          <path id="Path_17270" data-name="Path 17270" d="M266.487,286.063A11.072,11.072,0,0,0,263.322,281l-.236.059-1.156.844a52.473,52.473,0,0,1,4.059,10.818c1.35,5.679.54,8.65.54,10.54s1.89,4.059,2.43,7.029a33.121,33.121,0,0,1,.414,3.932C271.154,303.869,267.516,289.346,266.487,286.063Z" transform="translate(-235.289 -280.983)" fill="#fff"/>
        </g>
        <path id="Path_17272" data-name="Path 17272" d="M264.3,314.946c2.11-10.337-1.688-25.527-2.743-28.9a11.072,11.072,0,0,0-3.164-5.063,46.083,46.083,0,0,1-20.253,0s-4.219,5.063-6.962,15.4,2.11,24.894,4.219,29.746,1.9,7.173,1.055,12.447-2.321,13.08-.633,20.042,5.485,22.574,5.485,24.472a3.6,3.6,0,0,1-.177,1.122,6.169,6.169,0,0,0,4.54.515c-.059-1.578-.143-3.038-.143-3.958,0-2.954,1.055-19.831,1.055-24.261v-5.468s1.62,21.046,1.865,26.59c1.688-.928,3.7-.363,5.316.489v-.287c0-1.9,2.532-15.823,2.743-24.261s-2.321-12.236-2.11-14.768S262.191,325.283,264.3,314.946Z" transform="translate(-187.702 -192.778)" fill="none" stroke="#263238" stroke-linecap="round" stroke-linejoin="round" stroke-width="1"/>
        <path id="Path_17273" data-name="Path 17273" d="M240.83,311.48s6.962,3.165,18.143,0" transform="translate(-189.337 -197.54)" fill="none" stroke="#263238" stroke-linecap="round" stroke-linejoin="round" stroke-width="1"/>
        <line id="Line_3" data-name="Line 3" y1="42.826" x2="0.844" transform="translate(58.877 115.417)" fill="none" stroke="#263238" stroke-linecap="round" stroke-linejoin="round" stroke-width="1"/>
        <path id="Path_17274" data-name="Path 17274" d="M238.58,273.379l.844,6.118s2.743,2.532,10.126,2.321,10.126-2.321,10.126-2.321l.844-8.017S253.137,277.387,238.58,273.379Z" transform="translate(-188.986 -191.295)" fill="#263238" stroke="#263238" stroke-linecap="round" stroke-linejoin="round" stroke-width="1"/>
        <path id="Path_17275" data-name="Path 17275" d="M295.488,186.1a22.651,22.651,0,0,1,2.405-2.608,3.62,3.62,0,0,0,1.308-2.532c-.1-.506-3.418,2.3-3.418,2.3s1.612-2.2,2.211-2.81a2.591,2.591,0,0,0,1-1.907c0-.844-3.612,2.532-3.612,2.532s.6-.709,1.3-1.409A13.207,13.207,0,0,0,299,176.958c.2-.608-.844-.489-.844-.489s-5.274,4.008-5.7,5.274,0,5.063-1.688,9.494-10.548,11.6-12.869,13.924-5.485,7.806-5.485,7.806-5.063,4.852-9.072,6.329-13.713,8.017-13.713,8.017a14.877,14.877,0,0,0-10.177-1.249,14.877,14.877,0,0,0-10.177,1.249s-9.7-6.54-13.713-8.017-9.072-6.329-9.072-6.329-3.165-5.485-5.485-7.806-11.181-9.494-12.869-13.924-1.266-8.228-1.688-9.494-5.7-5.274-5.7-5.274-1.013-.118-.844.489a13.5,13.5,0,0,0,2.312,2.709c.7.7,1.308,1.409,1.308,1.409s-3.561-3.316-3.561-2.473a2.591,2.591,0,0,0,1,1.907c.608.608,2.211,2.81,2.211,2.81s-3.308-2.81-3.375-2.3a3.6,3.6,0,0,0,1.3,2.532,22.155,22.155,0,0,1,2.413,2.608s-3.612-2-3.612-1.6a2.574,2.574,0,0,0,1.1,1.688c.709.506,2.413,1.612,2.413,2.008a5.907,5.907,0,0,0,1,3.713c1.105,1.409,2.211,2.616,2.211,2.616s7.426,13.856,9.637,16.962,6.751,6.928,8.937,9.342,13.105,11.73,15.012,13.105,4.219,5.721,4.219,5.721-2.532,5.629-3.519,8.835a36.766,36.766,0,0,1-3.308,6.928s10.034,4.616,15.856,5.823a30.852,30.852,0,0,0,12.017,0c5.823-1.207,15.865-5.823,15.865-5.823a36.559,36.559,0,0,1-3.316-6.928c-1-3.207-3.51-8.835-3.51-8.835s2.3-4.312,4.219-5.721,12.852-10.742,15.063-13.147,6.751-6.228,8.937-9.342,9.637-16.962,9.637-16.962,1.105-1.207,2.211-2.616a5.974,5.974,0,0,0,1-3.713c0-.4,1.688-1.5,2.405-2.008a2.591,2.591,0,0,0,1.105-1.688C299.1,184.1,295.488,186.1,295.488,186.1Z" transform="translate(-179.81 -176.459)" fill="#fff" stroke="#263238" stroke-linecap="round" stroke-linejoin="round" stroke-width="1"/>
        <g id="Group_5178" data-name="Group 5178" transform="translate(9.021 20.009)" clip-path="url(#clip-path-14)">
          <path id="Path_17276" data-name="Path 17276" d="M291.641,205.079c-1.426-1.451-2.582-2.27-3.781-2.43-2.734,2.658-7.595,6.667-8.768,7.831-2.321,2.321-5.485,7.806-5.485,7.806s-5.063,4.852-9.072,6.329-13.713,8.017-13.713,8.017a14.877,14.877,0,0,0-10.177-1.249,14.877,14.877,0,0,0-10.177,1.249s-9.7-6.54-13.713-8.017-9.072-6.329-9.072-6.329-3.164-5.485-5.485-7.806c-1.527-1.519-7.848-7.249-11.131-10.81a12.5,12.5,0,0,0-4.059,2.709c2.38,4.346,8.953,12.422,10.388,14.43,2.211,3.114,6.751,6.928,8.937,9.342s13.105,11.772,15.012,13.147,4.219,5.721,4.219,5.721-2.532,5.629-3.519,8.835a36.766,36.766,0,0,1-3.308,6.928s10.034,4.616,15.856,5.823a30.851,30.851,0,0,0,12.017,0c5.823-1.207,15.865-5.823,15.865-5.823a36.558,36.558,0,0,1-3.316-6.928c-1-3.207-3.51-8.835-3.51-8.835s2.3-4.312,4.219-5.721,12.852-10.742,15.063-13.147,6.751-6.228,8.937-9.342C285.034,215.138,289.371,209.121,291.641,205.079Z" transform="translate(-189.955 -200.092)" fill="#7e57c2"/>
        </g>
        <path id="Path_17278" data-name="Path 17278" d="M290.5,204.794a7.021,7.021,0,0,0-4.135-2.16c-2.734,2.667-5.57,5.063-6.751,6.236-2.321,2.321-5.485,7.806-5.485,7.806s-5.063,4.852-9.072,6.329-13.713,8.017-13.713,8.017a14.877,14.877,0,0,0-10.177-1.249,14.877,14.877,0,0,0-10.177,1.249s-9.7-6.54-13.713-8.017-9.072-6.329-9.072-6.329-3.165-5.485-5.485-7.806c-1.527-1.519-5.907-5.139-9.148-8.7a7.2,7.2,0,0,0-3.072,2.16c2.371,4.346,5.983,10.861,7.418,12.869,2.211,3.114,6.751,6.928,8.937,9.342s13.131,11.772,15.038,13.148,4.219,5.721,4.219,5.721-2.532,5.629-3.519,8.835a36.766,36.766,0,0,1-3.308,6.928s10.034,4.616,15.856,5.823a30.852,30.852,0,0,0,12.017,0c5.823-1.207,15.865-5.823,15.865-5.823a36.557,36.557,0,0,1-3.316-6.928c-1-3.207-3.511-8.835-3.511-8.835s2.3-4.312,4.219-5.721,12.852-10.742,15.063-13.147,6.751-6.228,8.937-9.342C285.579,213.528,288.246,208.828,290.5,204.794Z" transform="translate(-181.479 -180.161)" fill="none" stroke="#263238" stroke-linecap="round" stroke-linejoin="round" stroke-width="1"/>
        <path id="Path_17279" data-name="Path 17279" d="M265.284,214.73s.422,6.329-.7,9.148-2.4,1.4-3.1.278S265.284,214.73,265.284,214.73Z" transform="translate(-192.551 -182.434)" fill="none" stroke="#263238" stroke-linecap="round" stroke-linejoin="round" stroke-width="1"/>
        <path id="Path_17280" data-name="Path 17280" d="M247.555,197.476s-2.388-1.966-7.029,1.122-6.051,12.38-6.194,18.008,1.831,11.527,0,15.046-5.907,8.16-5.342,13.5,6.894,6.329,7.029,9.983,3.519,8.3,12.236,7.882,10.97-9.991,10.27-13.08,4.219-4.363,4.92-9.991-5.907-11.392-6.464-14.9,5.342-11.958,4.92-18.987-6.751-8.726-9.983-10.413S247.555,197.476,247.555,197.476Z" transform="translate(-187.48 -179.383)" fill="#263238" stroke="#263238" stroke-linecap="round" stroke-linejoin="round" stroke-width="1"/>
        <path id="Path_17281" data-name="Path 17281" d="M254.622,266.77a4.042,4.042,0,0,0-.582,2.059" transform="translate(-191.4 -190.559)" fill="none" stroke="#fff" stroke-linecap="round" stroke-linejoin="round" stroke-width="1"/>
        <path id="Path_17282" data-name="Path 17282" d="M260.5,201.35s3.375,4.5,1.873,11.983-13.5,11.975-8.979,19.46,10.481,10.126,7.105,15.713a40.845,40.845,0,0,1-4.878,6.329" transform="translate(-191.14 -180.345)" fill="none" stroke="#fff" stroke-linecap="round" stroke-linejoin="round" stroke-width="1"/>
        <path id="Path_17283" data-name="Path 17283" d="M255.735,202.35c1.924,3.021,4.135,7.527,3.468,11.51-1.122,6.751-9.35,8.979-7.856,13.5" transform="translate(-190.951 -180.501)" fill="none" stroke="#fff" stroke-linecap="round" stroke-linejoin="round" stroke-width="1"/>
        <path id="Path_17284" data-name="Path 17284" d="M253.6,198.25s.447.515,1.089,1.392" transform="translate(-191.331 -179.861)" fill="none" stroke="#fff" stroke-linecap="round" stroke-linejoin="round" stroke-width="1"/>
      </g>
    </g>
  </g>
</svg>
