<svg id="lunch_time" xmlns="http://www.w3.org/2000/svg" xmlns:xlink="http://www.w3.org/1999/xlink" width="34" height="34" viewBox="0 0 34 34">
  <defs>
    <clipPath id="clip-path">
      <rect id="Rectangle_3477" data-name="Rectangle 3477" width="34" height="34" transform="translate(0 -0.3)" fill="#3d087b"/>
    </clipPath>
  </defs>
  <g id="Mask_Group_2" data-name="Mask Group 2" transform="translate(0 0.3)" clip-path="url(#clip-path)">
    <g id="Group_5145" data-name="Group 5145" transform="translate(0.449 4.533)">
      <path id="Path_16783" data-name="Path 16783" d="M26.441,69.227,28.3,67.065l3.5-3.877a.225.225,0,0,0,0-.3L29.46,60.281a.194.194,0,0,0-.3,0L25.136,63.9l-2.274,1.938a2.492,2.492,0,0,0-.112,3.653A2.577,2.577,0,0,0,26.441,69.227Z" transform="translate(-15.651 -42.543)" fill="#3d087b"/>
      <path id="Path_16784" data-name="Path 16784" d="M66.936,15.714s-3.578-4.138-7.94.224c-1.64,1.454-3.541,4.995-3.094,7.9a1.352,1.352,0,0,1-.335,1.118l-.41.41c-.037,0-.037.037-.075.075l-1.9,1.715a.194.194,0,0,0,0,.3l2.125,1.938a.227.227,0,0,0,.3,0l1.6-1.789.075-.075.447-.447a1.24,1.24,0,0,1,1.118-.335c2.907.485,6.411-1.454,7.865-3.094C71.074,19.293,66.936,15.714,66.936,15.714Z" transform="translate(-35.16 -13.519)" fill="#3d087b"/>
      <path id="Path_16785" data-name="Path 16785" d="M10.115,24.81c1.6,1.6,3.355,2.609,4.846,1.864l.6-.3a.987.987,0,0,1,.857,0l.6.6,9.468,10.474,1.938,2.274a2.482,2.482,0,0,0,3.616.149,2.452,2.452,0,0,0-.149-3.616L29.61,34.316,19.173,24.848l-.6-.6a.877.877,0,0,1,0-.857l.3-.6c.746-1.491-.335-3.355-1.864-4.846l-4.846-4.846a.991.991,0,0,0-1.528.149,1.077,1.077,0,0,0,.149,1.342l4.995,4.883a.988.988,0,0,1,.261,1.044.946.946,0,0,1-1.528.335L9.481,15.827A1.036,1.036,0,0,0,8.1,15.715l-.075.075c-.037.037-.075.075-.075.112a1.033,1.033,0,0,0,.112,1.379l4.995,4.995a.937.937,0,1,1-1.379,1.267L6.723,18.585a1.072,1.072,0,0,0-1.342-.149,1.016,1.016,0,0,0-.149,1.528Z" transform="translate(-4.953 -12.812)" fill="#3d087b"/>
    </g>
  </g>
</svg>
